# xmcd
#
# Track frame offsets:
# 150
# 24355
# 40639
# 61404
# 80910
# 98006
# 116614
# 139430
# 159232
# 177852
# 199719
# 222309
# 233443
# 252903
# 271728
# 291431
# 310982
#
# Disc length: 4409 seconds
#
#
# Revision: 0
# Processed by: cddbd v1.5.1PL0 Copyright (c) Steve Scherf et al.
# Submitted via: FreeRIP 2.941 
#
DISCID=eb113711
DTITLE=Various Artist - Szerelem 2
DYEAR=1998
DGENRE=Ballad
TTITLE0=Csaszar Elöd-Tiltott szerelem
TTITLE1=Csonka Andras- Allj meg kisleany
TTITLE2=Zambo Jimmy - Mit akarsz a boldogsagtol?
TTITLE3=Cserhati Zsuzsa- Te csak szeliden ringass el
TTITLE4=Akos- Minden ami szep volt
TTITLE5=Kozmix- Csakazertis szerelem
TTITLE6=Baby Sisters- Jo estet nyar jo estet szerelem
TTITLE7=Hip Hop Boyz -Meg faj
TTITLE8=Piramis- Szallj fel magasra
TTITLE9=Republic- 67es ut
TTITLE10=Charlie - Az legy aki vagy
TTITLE11=Bikini- Adj helyet magad mellett
TTITLE12=Hernadi Judit- Sohase mondd
TTITLE13=Amokfutok- Meghalok 1 csokodert
TTITLE14=Carpe Diem- Bonyolult lany
TTITLE15=Happy Gang- Szerelmünk soha veget nem er
TTITLE16=Koral- Maradj velem
EXTD=
EXTT0=
EXTT1=
EXTT2=
EXTT3=
EXTT4=
EXTT5=
EXTT6=
EXTT7=
EXTT8=
EXTT9=
EXTT10=
EXTT11=
EXTT12=
EXTT13=
EXTT14=
EXTT15=
EXTT16=
PLAYORDER=
